# xmcd
# 
# Track frame offsets:
#     150
#     42456
#     82621
#     121460
# 
# Disc length: 2104
# 
# Revision: 0
# Processed by: cddbd v1.5.2PL0 Copyright (c) Steve Scherf et al.
# Submitted via: fre:ac v1.0.17
# 
DISCID=27083604
DTITLE=Pettersson und Findus - Pettersson und Findus Jubiläums Edition 4 CD2
DYEAR=0
DGENRE=
TTITLE0=Tapferes Seepferdchen 1
TTITLE1=Tapferes Seepferdchen 2
TTITLE2=Unerwünschte Gäste 1
TTITLE3=Unerwünschte Gäste 2
EXTD=
EXTT0=
EXTT1=
EXTT2=
EXTT3=
PLAYORDER=
